<?xml version="1.0" encoding="utf-8"?>
<!-- Generator: Adobe Illustrator 24.0.0, SVG Export Plug-In . SVG Version: 6.00 Build 0)  -->
<svg version="1.1" id="Layer_1" xmlns="http://www.w3.org/2000/svg" xmlns:xlink="http://www.w3.org/1999/xlink" x="0px" y="0px"
	 viewBox="0 0 85.12 24" style="enable-background:new 0 0 85.12 24;" xml:space="preserve">
<style type="text/css">
	.st0{fill:#016D77;}
	.st1{font-family:'AgencyFB-Bold';}
	.st2{font-size:17.2609px;}
	.st3{fill:#004849;}
	.st4{fill:none;stroke:#49B591;stroke-width:0.3105;stroke-miterlimit:10;}
	.st5{fill:#49B591;}
</style>
<g>
	<text transform="matrix(1 0 0 1 24.6437 18.4976)"><tspan x="0" y="0" class="st0 st1 st2">T</tspan><tspan x="6.04" y="0" class="st0 st1 st2">ech PCs</tspan></text>
	<path class="st3" d="M0.34,9.92v4.43c0,2.38,1.27,4.57,3.32,5.76l3.84,2.22c2.06,1.19,4.59,1.19,6.65,0l3.84-2.22
		c2.06-1.19,3.32-3.38,3.32-5.76V9.92c0-2.38-1.27-4.57-3.32-5.76l-3.84-2.22c-2.06-1.19-4.59-1.19-6.65,0L3.67,4.16
		C1.61,5.35,0.34,7.55,0.34,9.92z"/>
	<g>
		<path class="st4" d="M10.83,14.61c0,0,4.13,2.59,8.02,0"/>
		<circle class="st5" cx="10.83" cy="14.61" r="0.73"/>
		<g>
			<path class="st5" d="M19.18,13.87c0.23,0,0.42,0.19,0.42,0.42s-0.19,0.42-0.42,0.42s-0.42-0.19-0.42-0.42
				S18.95,13.87,19.18,13.87 M19.18,13.56c-0.4,0-0.73,0.33-0.73,0.73s0.33,0.73,0.73,0.73s0.73-0.33,0.73-0.73
				S19.59,13.56,19.18,13.56L19.18,13.56z"/>
		</g>
	</g>
	<g>
		<path class="st4" d="M13.28,13.2c0,0,4.31-2.28,4.01-6.95"/>
		<circle class="st5" cx="13.28" cy="13.2" r="0.73"/>
		<g>
			<path class="st5" d="M17.18,5.38L17.18,5.38c0.07,0,0.15,0.02,0.21,0.06c0.2,0.12,0.27,0.37,0.15,0.58
				c-0.08,0.13-0.22,0.21-0.37,0.21c-0.07,0-0.15-0.02-0.21-0.06c-0.1-0.06-0.17-0.15-0.2-0.26c-0.03-0.11-0.01-0.22,0.04-0.32
				C16.89,5.46,17.03,5.38,17.18,5.38 M17.18,5.07c-0.25,0-0.5,0.13-0.64,0.37c-0.2,0.35-0.08,0.8,0.27,1
				c0.12,0.07,0.24,0.1,0.37,0.1c0.25,0,0.5-0.13,0.64-0.37c0.2-0.35,0.08-0.8-0.27-1C17.43,5.1,17.3,5.07,17.18,5.07L17.18,5.07z"
				/>
		</g>
	</g>
	<g>
		<path class="st4" d="M13.28,10.37c0,0,0.18-4.87-4.01-6.95"/>
		<circle class="st5" cx="13.28" cy="10.37" r="0.73"/>
		<g>
			<path class="st5" d="M8.82,2.87L8.82,2.87c0.15,0,0.29,0.08,0.37,0.21c0.12,0.2,0.05,0.46-0.15,0.58
				C8.97,3.69,8.9,3.71,8.82,3.71c-0.15,0-0.29-0.08-0.37-0.21C8.34,3.3,8.41,3.04,8.61,2.93C8.68,2.89,8.75,2.87,8.82,2.87
				 M8.82,2.56c-0.12,0-0.25,0.03-0.37,0.1c-0.35,0.2-0.47,0.65-0.27,1c0.14,0.24,0.38,0.37,0.64,0.37c0.12,0,0.25-0.03,0.37-0.1
				c0.35-0.2,0.47-0.65,0.27-1C9.32,2.69,9.07,2.56,8.82,2.56L8.82,2.56z"/>
		</g>
	</g>
	<g>
		<path class="st4" d="M10.83,8.95c0,0-4.13-2.59-8.02,0"/>
		<circle class="st5" cx="10.83" cy="8.95" r="0.73"/>
		<g>
			<path class="st5" d="M2.47,8.85c0.23,0,0.42,0.19,0.42,0.42S2.7,9.7,2.47,9.7S2.05,9.51,2.05,9.27S2.24,8.85,2.47,8.85
				 M2.47,8.54c-0.4,0-0.73,0.33-0.73,0.73s0.33,0.73,0.73,0.73S3.2,9.68,3.2,9.27S2.88,8.54,2.47,8.54L2.47,8.54z"/>
		</g>
	</g>
	<g>
		<path class="st4" d="M8.38,10.37c0,0-4.31,2.28-4.01,6.95"/>
		<circle class="st5" cx="8.38" cy="10.37" r="0.73"/>
		<g>
			<path class="st5" d="M4.48,17.34L4.48,17.34c0.07,0,0.15,0.02,0.21,0.06c0.2,0.12,0.27,0.37,0.15,0.58
				c-0.08,0.13-0.22,0.21-0.37,0.21c-0.07,0-0.15-0.02-0.21-0.06c-0.2-0.12-0.27-0.37-0.15-0.58C4.19,17.42,4.33,17.34,4.48,17.34
				 M4.48,17.03c-0.25,0-0.5,0.13-0.64,0.37c-0.2,0.35-0.08,0.8,0.27,1c0.12,0.07,0.24,0.1,0.37,0.1c0.25,0,0.5-0.13,0.64-0.37
				c0.2-0.35,0.08-0.8-0.27-1C4.73,17.06,4.6,17.03,4.48,17.03L4.48,17.03z"/>
		</g>
	</g>
	<g>
		<path class="st4" d="M8.38,13.2c0,0-0.18,4.87,4.01,6.95"/>
		<circle class="st5" cx="8.38" cy="13.2" r="0.73"/>
		<g>
			<path class="st5" d="M12.83,19.85L12.83,19.85c0.15,0,0.29,0.08,0.37,0.21c0.06,0.1,0.07,0.21,0.04,0.32
				c-0.03,0.11-0.1,0.2-0.2,0.26c-0.06,0.04-0.14,0.06-0.21,0.06c-0.15,0-0.29-0.08-0.37-0.21c-0.12-0.2-0.05-0.46,0.15-0.58
				C12.69,19.87,12.76,19.85,12.83,19.85 M12.83,19.54c-0.12,0-0.25,0.03-0.37,0.1c-0.35,0.2-0.47,0.65-0.27,1
				c0.14,0.24,0.38,0.37,0.64,0.37c0.12,0,0.25-0.03,0.37-0.1c0.35-0.2,0.47-0.65,0.27-1C13.33,19.67,13.08,19.54,12.83,19.54
				L12.83,19.54z"/>
		</g>
	</g>
	<path class="st5" d="M10.83,13.36L10.83,13.36c-0.87,0-1.57-0.7-1.57-1.57v0c0-0.87,0.7-1.57,1.57-1.57h0
		c0.87,0,1.57,0.7,1.57,1.57v0C12.4,12.65,11.7,13.36,10.83,13.36z"/>
</g>
</svg>
