<?xml version="1.0" encoding="utf-8"?>
<!-- Generator: Adobe Illustrator 24.0.0, SVG Export Plug-In . SVG Version: 6.00 Build 0)  -->
<svg version="1.1" id="Layer_1" xmlns="http://www.w3.org/2000/svg" xmlns:xlink="http://www.w3.org/1999/xlink" x="0px" y="0px"
	 viewBox="0 0 300 300" style="enable-background:new 0 0 300 300;" xml:space="preserve">
<style type="text/css">
	.st0{fill:#DADADA;}
	.st1{fill:#F7A958;}
	.st2{fill:#A3CB74;}
	.st3{fill:#7ECEF5;}
	.st4{fill:#D1BCDC;}
</style>
<path class="st0" d="M41.98,252.65v-11.66c0-0.56,0.46-1.02,1.02-1.02h206.17c0.56,0,1.02,0.46,1.02,1.02v11.66
	c0,0.56-0.46,1.02-1.02,1.02H43C42.44,253.67,41.98,253.21,41.98,252.65z"/>
<path class="st0" d="M41.98,231.91v-11.66c0-0.56,0.46-1.02,1.02-1.02h184.93c0.56,0,1.02,0.46,1.02,1.02v11.66
	c0,0.56-0.46,1.02-1.02,1.02H43C42.44,232.93,41.98,232.47,41.98,231.91z"/>
<path class="st0" d="M41.98,211.17v-11.66c0-0.56,0.46-1.02,1.02-1.02h176.71c0.56,0,1.02,0.46,1.02,1.02v11.66
	c0,0.56-0.46,1.02-1.02,1.02H43C42.44,212.19,41.98,211.73,41.98,211.17z"/>
<path class="st1" d="M41.98,190.43v-11.66c0-0.56,0.46-1.02,1.02-1.02h121.93c0.56,0,1.02,0.46,1.02,1.02v11.66
	c0,0.56-0.46,1.02-1.02,1.02H43C42.44,191.45,41.98,190.99,41.98,190.43z"/>
<path class="st2" d="M41.98,169.69v-11.66c0-0.56,0.46-1.02,1.02-1.02h110.58c0.56,0,1.02,0.46,1.02,1.02v11.66
	c0,0.56-0.46,1.02-1.02,1.02H43C42.44,170.71,41.98,170.25,41.98,169.69z"/>
<path class="st3" d="M41.98,148.95V137.3c0-0.56,0.46-1.02,1.02-1.02h116.84c0.56,0,1.02,0.46,1.02,1.02v11.66
	c0,0.56-0.46,1.02-1.02,1.02H43C42.44,149.97,41.98,149.52,41.98,148.95z"/>
<path class="st4" d="M41.98,128.21v-11.66c0-0.56,0.46-1.02,1.02-1.02h105.27c0.56,0,1.02,0.46,1.02,1.02v11.66
	c0,0.56-0.46,1.02-1.02,1.02H43C42.44,129.23,41.98,128.78,41.98,128.21z"/>
<path class="st0" d="M41.98,107.47V95.82c0-0.56,0.46-1.02,1.02-1.02H85.5c0.56,0,1.02,0.46,1.02,1.02v11.66
	c0,0.56-0.46,1.02-1.02,1.02H43C42.44,108.49,41.98,108.04,41.98,107.47z"/>
<path class="st0" d="M41.98,86.74V75.08c0-0.56,0.46-1.02,1.02-1.02h26.45c0.56,0,1.02,0.46,1.02,1.02v11.66
	c0,0.56-0.46,1.02-1.02,1.02H43C42.44,87.75,41.98,87.3,41.98,86.74z"/>
<path class="st0" d="M41.98,66V54.34c0-0.56,0.46-1.02,1.02-1.02h10.01c0.56,0,1.02,0.46,1.02,1.02V66c0,0.56-0.46,1.02-1.02,1.02
	H43C42.44,67.02,41.98,66.56,41.98,66z"/>
<path d="M42.99,260.7H258.5v-2.96l3.87,3.46l-3.87,3.46v-2.96H42.48c-0.2,0-0.38-0.13-0.46-0.32c-0.02-0.06-0.04-0.12-0.04-0.19
	c0-0.02,0-0.05,0.01-0.07V42.07h1V260.7z"/>
</svg>
