<?xml version="1.0" encoding="utf-8"?>
<!-- Generator: Adobe Illustrator 24.0.0, SVG Export Plug-In . SVG Version: 6.00 Build 0)  -->
<svg version="1.1" id="Layer_1" xmlns="http://www.w3.org/2000/svg" xmlns:xlink="http://www.w3.org/1999/xlink" x="0px" y="0px"
	 viewBox="0 0 29.8 33.36" style="enable-background:new 0 0 29.8 33.36;" xml:space="preserve">
<path id="패스_78_1_" d="M27.26,28.29c-0.54,0.56-1.43,0.57-1.99,0.03c-0.01-0.01-0.02-0.02-0.03-0.03l-3.59-3.59
	c-5.18,4.15-12.74,3.31-16.89-1.87S1.47,10.09,6.65,5.95s12.74-3.31,16.89,1.87c3.47,4.34,3.52,10.48,0.11,14.87l3.59,3.59
	C27.79,26.83,27.81,27.73,27.26,28.29z M14.35,6.47c-4.9,0-8.88,3.98-8.88,8.88s3.98,8.88,8.88,8.88s8.88-3.98,8.88-8.88l0,0
	c0.01-4.9-3.96-8.87-8.86-8.88C14.37,6.47,14.36,6.47,14.35,6.47z"/>
</svg>
